<svg width="8" height="16" viewBox="0 0 8 16" fill="none" xmlns="http://www.w3.org/2000/svg">
<path d="M1.52137 12.0118V6.49896H1.40775C1.02905 6.48369 0.671143 6.32827 0.408805 6.0652C0.146468 5.80212 0 5.45173 0 5.08724C0 4.72276 0.146468 4.37237 0.408805 4.10929C0.671143 3.84621 1.02905 3.6908 1.40775 3.67552H1.52137V2.21538C1.51241 1.9933 1.55016 1.77176 1.63236 1.56404C1.71456 1.35633 1.83951 1.1667 1.99973 1.00653C2.15995 0.846359 2.35215 0.718939 2.56481 0.631901C2.77746 0.544864 3.0062 0.5 3.23731 0.5C3.46843 0.5 3.69717 0.544864 3.90983 0.631901C4.12248 0.718939 4.31468 0.846359 4.4749 1.00653C4.63513 1.1667 4.76008 1.35633 4.84227 1.56404C4.92447 1.77176 4.96222 1.9933 4.95326 2.21538V3.66807H6.46908C6.66704 3.66009 6.86464 3.69069 7.05 3.75803C7.23535 3.82538 7.40462 3.92808 7.54763 4.05995C7.69064 4.19183 7.80445 4.35016 7.88218 4.52542C7.95992 4.70068 8 4.88926 8 5.07979C8 5.27033 7.95992 5.4589 7.88218 5.63416C7.80445 5.80942 7.69064 5.96775 7.54763 6.09963C7.40462 6.23151 7.23535 6.33421 7.05 6.40155C6.86464 6.4689 6.66704 6.4995 6.46908 6.49151H4.95842V11.458C4.95842 12.2179 5.29671 12.5854 6.06365 12.5854C6.17727 12.5854 6.40194 12.5655 6.46908 12.5655C6.84558 12.5668 7.20631 12.7111 7.47278 12.9668C7.73925 13.2226 7.88989 13.5692 7.89193 13.9313C7.89056 14.1991 7.80599 14.4604 7.64909 14.6816C7.49218 14.9028 7.27011 15.0739 7.01136 15.1729C6.38598 15.4051 5.71893 15.5156 5.04881 15.4982C2.94422 15.5082 1.52137 14.7036 1.52137 12.0118Z" fill="#111183"/>
</svg>
