<svg width="5" height="16" viewBox="0 0 5 16" fill="none" xmlns="http://www.w3.org/2000/svg">
<path d="M0.5 1.98371C0.5 1.06477 1.36945 0.5 2.5 0.5C3.63055 0.5 4.5 1.06477 4.5 1.98371V2.02679C4.5 2.94813 3.63055 3.53204 2.5 3.53204C1.36945 3.53204 0.5 2.94813 0.5 2.02679V1.98371ZM0.712653 6.12614C0.712653 5.70471 0.900966 5.30054 1.23616 5.00254C1.57135 4.70454 2.02597 4.53713 2.5 4.53713C2.97404 4.53713 3.42866 4.70454 3.76385 5.00254C4.09904 5.30054 4.28735 5.70471 4.28735 6.12614V14.411C4.28735 14.8324 4.09904 15.2366 3.76385 15.5346C3.42866 15.8326 2.97404 16 2.5 16C2.02597 16 1.57135 15.8326 1.23616 15.5346C0.900966 15.2366 0.712653 14.8324 0.712653 14.411V6.12614Z" fill="#111183"/>
</svg>
