<svg width="11" height="13" viewBox="0 0 11 13" fill="none" xmlns="http://www.w3.org/2000/svg">
<path d="M5.88867 12.4973C2.50172 12.4973 0 9.96605 0 6.29219V6.24863C0 2.82072 2.29245 0 5.57355 0C9.33816 0 10.9979 3.29212 10.9979 5.77723C11.0086 5.99108 10.9777 6.20496 10.9071 6.40548C10.8365 6.606 10.7278 6.78884 10.5878 6.94253C10.4478 7.09622 10.2795 7.21746 10.0934 7.29865C9.90735 7.37983 9.70756 7.41922 9.50654 7.41433H3.18248C3.4976 8.95151 4.50791 9.76365 5.93678 9.76365C6.75743 9.77219 7.55732 9.48911 8.20997 8.95919C8.43261 8.77911 8.70773 8.6884 8.98695 8.703C9.15233 8.70013 9.31653 8.73306 9.46961 8.79977C9.62269 8.86649 9.76145 8.96561 9.87751 9.09113C9.99356 9.21664 10.0845 9.36594 10.1448 9.52999C10.205 9.69403 10.2334 9.8694 10.2282 10.0455C10.2293 10.2359 10.1923 10.4244 10.1197 10.5984C10.0471 10.7725 9.9406 10.9281 9.80723 11.0549C8.71028 12.0292 7.31642 12.5423 5.88867 12.4973ZM7.95018 5.28534C7.76015 3.76353 6.91822 2.72337 5.57355 2.72337C4.22887 2.72337 3.38694 3.73022 3.13437 5.28534H7.95018Z" fill="#111183"/>
</svg>
