<svg width="29" height="32" viewBox="0 0 29 32" fill="none" xmlns="http://www.w3.org/2000/svg">
<path d="M16.5116 0.474596C15.9648 0.163498 15.3472 0 14.7189 0C14.0907 0 13.4731 0.163498 12.9263 0.474596L1.81931 6.88088C1.2664 7.20078 0.807098 7.6616 0.487699 8.2169C0.168299 8.7722 8.11222e-05 9.40236 0 10.0439V22.0998C0.000973911 22.748 0.173614 23.3843 0.500167 23.9432C0.826719 24.5021 1.2954 24.9634 1.85801 25.2798L12.9529 31.5304C13.4951 31.8382 14.1072 32 14.7298 32C15.3525 32 15.9646 31.8382 16.5068 31.5304L27.1686 25.4233C27.7238 25.105 28.1855 24.6448 28.5071 24.0894C28.8287 23.534 28.9987 22.9031 29 22.2603V9.74218C28.9989 9.09971 28.8293 8.4689 28.5081 7.91352C28.187 7.35813 27.7257 6.89784 27.171 6.57918L16.5116 0.474596ZM26.3727 17.6862C26.21 18.0974 25.9702 18.4732 25.6662 18.7932C25.3447 19.1321 24.9486 19.3905 24.5098 19.5475L15.4399 23.2579L11.8497 15.9587C11.5473 15.3747 10.7441 13.3577 10.7344 12.9782C10.7238 12.5357 10.7986 12.0953 10.9545 11.6813C11.1135 11.2769 11.3493 10.9074 11.6489 10.5938C11.9667 10.2653 12.3559 10.0154 12.7859 9.86383C13.1578 9.72596 13.5509 9.65512 13.9472 9.65459H14.0174C14.8744 9.67753 15.6973 9.99722 16.3471 10.5597C16.6599 10.8341 16.9199 11.164 17.114 11.5329L18.4761 14.3942C18.5332 14.5125 18.6337 14.6038 18.7564 14.6492C18.8791 14.6946 19.0145 14.6904 19.1341 14.6375L21.9357 13.404C22.2859 13.2636 22.6595 13.1917 23.0365 13.1923H23.1381C23.5649 13.2016 23.987 13.2838 24.3864 13.4356C24.7777 13.5869 25.1396 13.806 25.4557 14.0828C25.7736 14.3608 26.0362 14.6968 26.2299 15.073C26.444 15.4786 26.5632 15.928 26.5783 16.3869C26.5966 16.8295 26.5267 17.2712 26.3727 17.6862V17.6862Z" fill="url(#paint0_linear_30_802)"/>
<defs>
<linearGradient id="paint0_linear_30_802" x1="0" y1="15.9952" x2="29" y2="15.9952" gradientUnits="userSpaceOnUse">
<stop stop-color="#F0047F"/>
<stop offset="1" stop-color="#E0013F"/>
</linearGradient>
</defs>
</svg>
