<svg width="12" height="13" viewBox="0 0 12 13" fill="none" xmlns="http://www.w3.org/2000/svg">
<path d="M6.33155 12.5H6.1559C5.25758 12.5 4.65034 11.9365 4.26893 11.0677L0.675645 2.84356C0.566375 2.58968 0.506776 2.31761 0.5 2.04175C0.519894 1.62811 0.699297 1.23775 1.0013 0.950992C1.30329 0.664237 1.70491 0.502905 2.1235 0.500198C3.02182 0.500198 3.5036 0.996673 3.74449 1.67188L6.26882 8.42146L8.84082 1.62968C8.94296 1.3005 9.1498 1.01275 9.43057 0.809237C9.71134 0.605726 10.051 0.497336 10.3991 0.500198C10.6083 0.496901 10.8162 0.534871 11.0104 0.611892C11.2047 0.688914 11.3815 0.803445 11.5305 0.948799C11.6795 1.09415 11.7978 1.26742 11.8784 1.45848C11.959 1.64954 12.0004 1.85457 12 2.06161C11.9888 2.3305 11.9293 2.59528 11.8244 2.84356L8.22856 11.0677C7.83711 11.9142 7.23238 12.5 6.33155 12.5Z" fill="#111183"/>
</svg>
